<svg width="20" height="20" viewBox="0 0 20 20" fill="none" xmlns="http://www.w3.org/2000/svg">
<mask id="path-1-inside-1_663_14599" fill="white">
<path d="M17.8571 3.57143H12.8571V2.14286C12.8571 1.57454 12.6314 1.02949 12.2295 0.627628C11.8277 0.225765 11.2826 0 10.7143 0H2.14286C1.57454 0 1.02949 0.225765 0.627628 0.627628C0.225765 1.02949 0 1.57454 0 2.14286V19.2857C0 19.4752 0.0752549 19.6568 0.209209 19.7908C0.343164 19.9247 0.524845 20 0.714286 20H19.2857C19.4752 20 19.6568 19.9247 19.7908 19.7908C19.9247 19.6568 20 19.4752 20 19.2857V5.71429C20 5.14596 19.7742 4.60092 19.3724 4.19906C18.9705 3.79719 18.4255 3.57143 17.8571 3.57143ZM7.85714 18.5714H5V15.7143H7.85714V18.5714ZM11.4286 18.5714H9.28571V15C9.28571 14.8106 9.21046 14.6289 9.0765 14.4949C8.94255 14.361 8.76087 14.2857 8.57143 14.2857H4.28571C4.09627 14.2857 3.91459 14.361 3.78064 14.4949C3.64668 14.6289 3.57143 14.8106 3.57143 15V18.5714H1.42857V2.14286C1.42857 1.95342 1.50383 1.77174 1.63778 1.63778C1.77174 1.50383 1.95342 1.42857 2.14286 1.42857H10.7143C10.9037 1.42857 11.0854 1.50383 11.2194 1.63778C11.3533 1.77174 11.4286 1.95342 11.4286 2.14286V18.5714ZM18.5714 18.5714H12.8571V5H17.8571C18.0466 5 18.2283 5.07525 18.3622 5.20921C18.4962 5.34316 18.5714 5.52485 18.5714 5.71429V18.5714Z"/>
</mask>
<path d="M17.8571 3.57143H12.8571V2.14286C12.8571 1.57454 12.6314 1.02949 12.2295 0.627628C11.8277 0.225765 11.2826 0 10.7143 0H2.14286C1.57454 0 1.02949 0.225765 0.627628 0.627628C0.225765 1.02949 0 1.57454 0 2.14286V19.2857C0 19.4752 0.0752549 19.6568 0.209209 19.7908C0.343164 19.9247 0.524845 20 0.714286 20H19.2857C19.4752 20 19.6568 19.9247 19.7908 19.7908C19.9247 19.6568 20 19.4752 20 19.2857V5.71429C20 5.14596 19.7742 4.60092 19.3724 4.19906C18.9705 3.79719 18.4255 3.57143 17.8571 3.57143ZM7.85714 18.5714H5V15.7143H7.85714V18.5714ZM11.4286 18.5714H9.28571V15C9.28571 14.8106 9.21046 14.6289 9.0765 14.4949C8.94255 14.361 8.76087 14.2857 8.57143 14.2857H4.28571C4.09627 14.2857 3.91459 14.361 3.78064 14.4949C3.64668 14.6289 3.57143 14.8106 3.57143 15V18.5714H1.42857V2.14286C1.42857 1.95342 1.50383 1.77174 1.63778 1.63778C1.77174 1.50383 1.95342 1.42857 2.14286 1.42857H10.7143C10.9037 1.42857 11.0854 1.50383 11.2194 1.63778C11.3533 1.77174 11.4286 1.95342 11.4286 2.14286V18.5714ZM18.5714 18.5714H12.8571V5H17.8571C18.0466 5 18.2283 5.07525 18.3622 5.20921C18.4962 5.34316 18.5714 5.52485 18.5714 5.71429V18.5714Z" fill="#082928"/>
<path d="M12.8571 3.57143H-3.14286V19.5714H12.8571V3.57143ZM12.8571 2.14286H28.8571H12.8571ZM2.14286 0V-16V0ZM0 2.14286H-16H0ZM0 19.2857H-16H0ZM20 5.71429H36H20ZM7.85714 18.5714V34.5714H23.8571V18.5714H7.85714ZM5 18.5714H-11V34.5714H5V18.5714ZM5 15.7143V-0.285714H-11V15.7143H5ZM7.85714 15.7143H23.8571V-0.285714H7.85714V15.7143ZM11.4286 18.5714V34.5714H27.4286V18.5714H11.4286ZM9.28571 18.5714H-6.71429V34.5714H9.28571V18.5714ZM3.57143 18.5714V34.5714H19.5714V18.5714H3.57143ZM1.42857 18.5714H-14.5714V34.5714H1.42857V18.5714ZM2.14286 1.42857V17.4286V1.42857ZM18.5714 18.5714V34.5714H34.5714V18.5714H18.5714ZM12.8571 18.5714H-3.14286V34.5714H12.8571V18.5714ZM12.8571 5V-11H-3.14286V5H12.8571ZM17.8571 -12.4286H12.8571V19.5714H17.8571V-12.4286ZM28.8571 3.57143V2.14286H-3.14286V3.57143H28.8571ZM28.8571 2.14286C28.8571 -2.66892 26.9457 -7.28363 23.5432 -10.6861L0.915807 11.9413C-1.68292 9.34262 -3.14286 5.818 -3.14286 2.14286L28.8571 2.14286ZM23.5432 -10.6861C20.1408 -14.0885 15.5261 -16 10.7143 -16V16C7.03914 16 3.51453 14.5401 0.915807 11.9413L23.5432 -10.6861ZM10.7143 -16H2.14286V16H10.7143V-16ZM2.14286 -16C-2.66893 -16 -7.28364 -14.0885 -10.6861 -10.6861L11.9413 11.9413C9.34262 14.5401 5.818 16 2.14286 16L2.14286 -16ZM-10.6861 -10.6861C-14.0885 -7.28364 -16 -2.66893 -16 2.14286L16 2.14286C16 5.818 14.5401 9.34262 11.9413 11.9413L-10.6861 -10.6861ZM-16 2.14286V19.2857H16V2.14286H-16ZM-16 19.2857C-16 23.7186 -14.239 27.97 -11.1045 31.1045L11.5229 8.47708C14.3896 11.3437 16 15.2317 16 19.2857H-16ZM-11.1045 31.1045C-7.96994 34.2391 -3.71859 36 0.714286 36V4C4.76828 4 8.65627 5.61043 11.5229 8.47708L-11.1045 31.1045ZM0.714286 36H19.2857V4H0.714286V36ZM19.2857 36C23.7186 36 27.9699 34.2391 31.1045 31.1045L8.47708 8.47708C11.3437 5.61042 15.2317 4 19.2857 4V36ZM31.1045 31.1045C34.2391 27.9699 36 23.7186 36 19.2857H4C4 15.2317 5.61042 11.3437 8.47708 8.47708L31.1045 31.1045ZM36 19.2857V5.71429H4V19.2857H36ZM36 5.71429C36 0.902506 34.0885 -3.7122 30.6861 -7.11465L8.05866 15.5128C5.45994 12.914 4 9.38942 4 5.71429H36ZM30.6861 -7.11465C27.2836 -10.5171 22.6689 -12.4286 17.8571 -12.4286V19.5714C14.182 19.5714 10.6574 18.1115 8.05866 15.5128L30.6861 -7.11465ZM7.85714 2.57143H5V34.5714H7.85714V2.57143ZM21 18.5714V15.7143H-11V18.5714H21ZM5 31.7143H7.85714V-0.285714H5V31.7143ZM-8.14286 15.7143V18.5714H23.8571V15.7143H-8.14286ZM11.4286 2.57143H9.28571V34.5714H11.4286V2.57143ZM25.2857 18.5714V15H-6.71429V18.5714H25.2857ZM25.2857 15C25.2857 10.5671 23.5248 6.31576 20.3902 3.18122L-2.2372 25.8086C-5.10383 22.942 -6.71429 19.054 -6.71429 15H25.2857ZM20.3902 3.18122C17.2557 0.0466587 13.0043 -1.71429 8.57143 -1.71429V30.2857C4.51743 30.2857 0.629444 28.6753 -2.2372 25.8086L20.3902 3.18122ZM8.57143 -1.71429H4.28571V30.2857H8.57143V-1.71429ZM4.28571 -1.71429C-0.147162 -1.71429 -4.39851 0.0466587 -7.53307 3.18122L15.0943 25.8086C12.2277 28.6753 8.33971 30.2857 4.28571 30.2857V-1.71429ZM-7.53307 3.18122C-10.6676 6.31576 -12.4286 10.5671 -12.4286 15H19.5714C19.5714 19.054 17.961 22.942 15.0943 25.8086L-7.53307 3.18122ZM-12.4286 15V18.5714H19.5714V15H-12.4286ZM3.57143 2.57143H1.42857V34.5714H3.57143V2.57143ZM17.4286 18.5714V2.14286H-14.5714V18.5714H17.4286ZM17.4286 2.14286C17.4286 6.19689 15.8181 10.0849 12.9515 12.9515L-9.67593 -9.67593C-12.8105 -6.5414 -14.5714 -2.29006 -14.5714 2.14286H17.4286ZM12.9515 12.9515C10.0849 15.8181 6.19689 17.4286 2.14286 17.4286L2.14286 -14.5714C-2.29006 -14.5714 -6.5414 -12.8105 -9.67593 -9.67593L12.9515 12.9515ZM2.14286 17.4286H10.7143V-14.5714H2.14286V17.4286ZM10.7143 17.4286C6.66027 17.4286 2.77229 15.8181 -0.0943457 12.9515L22.5331 -9.67593C19.3985 -12.8105 15.1472 -14.5714 10.7143 -14.5714V17.4286ZM-0.0943457 12.9515C-2.96099 10.0848 -4.57143 6.19685 -4.57143 2.14286H27.4286C27.4286 -2.29002 25.6676 -6.54137 22.5331 -9.67593L-0.0943457 12.9515ZM-4.57143 2.14286V18.5714H27.4286V2.14286H-4.57143ZM18.5714 2.57143H12.8571V34.5714H18.5714V2.57143ZM28.8571 18.5714V5H-3.14286V18.5714H28.8571ZM12.8571 21H17.8571V-11H12.8571V21ZM17.8571 21C13.8031 21 9.91514 19.3895 7.04851 16.5229L29.6759 -6.1045C26.5414 -9.23904 22.29 -11 17.8571 -11V21ZM7.04851 16.5229C4.18186 13.6563 2.57143 9.76828 2.57143 5.71429H34.5714C34.5714 1.28141 32.8105 -2.96994 29.6759 -6.1045L7.04851 16.5229ZM2.57143 5.71429V18.5714H34.5714V5.71429H2.57143Z" fill="#082928" mask="url(#path-1-inside-1_663_14599)"/>
<path d="M5.00028 3.57153H3.57171C3.38227 3.57153 3.20059 3.64679 3.06663 3.78074C2.93268 3.9147 2.85742 4.09638 2.85742 4.28582C2.85742 4.47526 2.93268 4.65694 3.06663 4.7909C3.20059 4.92485 3.38227 5.0001 3.57171 5.0001H5.00028C5.18972 5.0001 5.3714 4.92485 5.50536 4.7909C5.63931 4.65694 5.71456 4.47526 5.71456 4.28582C5.71456 4.09638 5.63931 3.9147 5.50536 3.78074C5.3714 3.64679 5.18972 3.57153 5.00028 3.57153Z" fill="#082928"/>
<path d="M9.28544 3.57153H7.85686C7.66742 3.57153 7.48574 3.64679 7.35179 3.78074C7.21783 3.9147 7.14258 4.09638 7.14258 4.28582C7.14258 4.47526 7.21783 4.65694 7.35179 4.7909C7.48574 4.92485 7.66742 5.0001 7.85686 5.0001H9.28544C9.47488 5.0001 9.65656 4.92485 9.79051 4.7909C9.92447 4.65694 9.99972 4.47526 9.99972 4.28582C9.99972 4.09638 9.92447 3.9147 9.79051 3.78074C9.65656 3.64679 9.47488 3.57153 9.28544 3.57153Z" fill="#082928"/>
<path d="M5.00028 7.14282H3.57171C3.38227 7.14282 3.20059 7.21808 3.06663 7.35203C2.93268 7.48599 2.85742 7.66767 2.85742 7.85711C2.85742 8.04655 2.93268 8.22823 3.06663 8.36218C3.20059 8.49614 3.38227 8.57139 3.57171 8.57139H5.00028C5.18972 8.57139 5.3714 8.49614 5.50536 8.36218C5.63931 8.22823 5.71456 8.04655 5.71456 7.85711C5.71456 7.66767 5.63931 7.48599 5.50536 7.35203C5.3714 7.21808 5.18972 7.14282 5.00028 7.14282Z" fill="#082928"/>
<path d="M9.28544 7.14282H7.85686C7.66742 7.14282 7.48574 7.21808 7.35179 7.35203C7.21783 7.48599 7.14258 7.66767 7.14258 7.85711C7.14258 8.04655 7.21783 8.22823 7.35179 8.36218C7.48574 8.49614 7.66742 8.57139 7.85686 8.57139H9.28544C9.47488 8.57139 9.65656 8.49614 9.79051 8.36218C9.92447 8.22823 9.99972 8.04655 9.99972 7.85711C9.99972 7.66767 9.92447 7.48599 9.79051 7.35203C9.65656 7.21808 9.47488 7.14282 9.28544 7.14282Z" fill="#082928"/>
<path d="M5.00028 10.7144H3.57171C3.38227 10.7144 3.20059 10.7896 3.06663 10.9236C2.93268 11.0575 2.85742 11.2392 2.85742 11.4286C2.85742 11.6181 2.93268 11.7998 3.06663 11.9337C3.20059 12.0677 3.38227 12.1429 3.57171 12.1429H5.00028C5.18972 12.1429 5.3714 12.0677 5.50536 11.9337C5.63931 11.7998 5.71456 11.6181 5.71456 11.4286C5.71456 11.2392 5.63931 11.0575 5.50536 10.9236C5.3714 10.7896 5.18972 10.7144 5.00028 10.7144Z" fill="#082928"/>
<path d="M9.28544 10.7144H7.85686C7.66742 10.7144 7.48574 10.7896 7.35179 10.9236C7.21783 11.0575 7.14258 11.2392 7.14258 11.4286C7.14258 11.6181 7.21783 11.7998 7.35179 11.9337C7.48574 12.0677 7.66742 12.1429 7.85686 12.1429H9.28544C9.47488 12.1429 9.65656 12.0677 9.79051 11.9337C9.92447 11.7998 9.99972 11.6181 9.99972 11.4286C9.99972 11.2392 9.92447 11.0575 9.79051 10.9236C9.65656 10.7896 9.47488 10.7144 9.28544 10.7144Z" fill="#082928"/>
<path d="M16.429 7.14282H15.0004C14.811 7.14282 14.6293 7.21808 14.4953 7.35203C14.3614 7.48599 14.2861 7.66767 14.2861 7.85711C14.2861 8.04655 14.3614 8.22823 14.4953 8.36218C14.6293 8.49614 14.811 8.57139 15.0004 8.57139H16.429C16.6184 8.57139 16.8001 8.49614 16.9341 8.36218C17.068 8.22823 17.1433 8.04655 17.1433 7.85711C17.1433 7.66767 17.068 7.48599 16.9341 7.35203C16.8001 7.21808 16.6184 7.14282 16.429 7.14282Z" fill="#082928"/>
<path d="M16.429 10.7144H15.0004C14.811 10.7144 14.6293 10.7896 14.4953 10.9236C14.3614 11.0575 14.2861 11.2392 14.2861 11.4286C14.2861 11.6181 14.3614 11.7998 14.4953 11.9337C14.6293 12.0677 14.811 12.1429 15.0004 12.1429H16.429C16.6184 12.1429 16.8001 12.0677 16.9341 11.9337C17.068 11.7998 17.1433 11.6181 17.1433 11.4286C17.1433 11.2392 17.068 11.0575 16.9341 10.9236C16.8001 10.7896 16.6184 10.7144 16.429 10.7144Z" fill="#082928"/>
<path d="M16.429 14.2856H15.0004C14.811 14.2856 14.6293 14.3609 14.4953 14.4949C14.3614 14.6288 14.2861 14.8105 14.2861 14.9999C14.2861 15.1894 14.3614 15.3711 14.4953 15.505C14.6293 15.639 14.811 15.7142 15.0004 15.7142H16.429C16.6184 15.7142 16.8001 15.639 16.9341 15.505C17.068 15.3711 17.1433 15.1894 17.1433 14.9999C17.1433 14.8105 17.068 14.6288 16.9341 14.4949C16.8001 14.3609 16.6184 14.2856 16.429 14.2856Z" fill="#082928"/>
</svg>
