<svg width="32" height="32" viewBox="0 0 32 32" fill="none" xmlns="http://www.w3.org/2000/svg">
<path d="M6.46793 26.8369C8.05658 28.4823 10.1559 29.3333 12.4254 29.3333C14.6381 29.3333 16.7942 28.4255 18.3828 26.8369L26.8935 18.3263C27.3474 17.8724 27.3474 17.1915 26.8935 16.7376C26.4396 16.2837 25.7587 16.2837 25.3048 16.7376L16.7942 25.2482C15.6027 26.4397 14.014 27.0638 12.3686 27.0638C10.6665 27.0638 9.1346 26.4397 7.94311 25.2482C5.50339 22.8085 5.50339 18.8936 7.94311 16.4539L18.4396 5.95746C19.1204 5.2766 20.085 4.87944 21.0495 4.87944C22.014 4.87944 22.9786 5.27661 23.6594 5.95746C25.0779 7.43263 25.0779 9.75887 23.6594 11.1773L13.3899 21.4468C12.8793 21.9575 12.085 21.9575 11.5743 21.4468C11.0637 20.9362 11.0637 20.1419 11.5743 19.6312L19.4041 11.8582C19.858 11.4043 19.858 10.7234 19.4041 10.2695C18.9502 9.81561 18.2693 9.81561 17.8154 10.2695L9.98566 18.0993C8.62396 19.461 8.62396 21.6738 9.98566 23.0355C10.6665 23.7163 11.5176 24.0567 12.4821 24.0567C13.4467 24.0567 14.2977 23.7163 14.9786 23.0355L25.3048 12.7092C27.6311 10.4397 27.6311 6.69505 25.3048 4.3688C24.1701 3.29079 22.6949 2.66668 21.1062 2.66668C19.5176 2.66667 18.0424 3.29079 16.9076 4.3688L6.46793 14.8653C3.17715 18.156 3.17715 23.5461 6.46793 26.8369Z" fill="#8A9099"/>
</svg>
