<svg width="34" height="34" viewBox="0 0 34 34" fill="none" xmlns="http://www.w3.org/2000/svg">
<path d="M9.88894 12.5554H24.1112M8.11116 19.6665H9.88894M24.1112 19.6665H25.8889M1 26.7776V15.062C1.00036 14.581 1.09834 14.105 1.288 13.6629L5.41067 4.04512C5.68451 3.40534 6.14008 2.85999 6.72092 2.47667C7.30175 2.09334 7.9823 1.8889 8.67822 1.88867H25.3218C26.0175 1.88875 26.6979 2.09293 27.2787 2.47593C27.8595 2.85892 28.3152 3.40389 28.5893 4.04334L32.7138 13.6611C32.9033 14.1044 33.0007 14.5817 33 15.0638V26.7776M1 26.7776V31.0442C1 31.3271 1.11238 31.5984 1.31242 31.7985C1.51246 31.9985 1.78377 32.1109 2.06667 32.1109H7.04444C7.32734 32.1109 7.59865 31.9985 7.79869 31.7985C7.99873 31.5984 8.11111 31.3271 8.11111 31.0442V26.7776M1 26.7776H8.11111M33 26.7776V31.0442C33 31.3271 32.8876 31.5984 32.6876 31.7985C32.4875 31.9985 32.2162 32.1109 31.9333 32.1109H26.9556C26.8155 32.1109 26.6768 32.0833 26.5474 32.0297C26.4179 31.9761 26.3004 31.8975 26.2013 31.7985C26.1023 31.6994 26.0237 31.5818 25.9701 31.4524C25.9165 31.323 25.8889 31.1843 25.8889 31.0442V26.7776M33 26.7776H25.8889M8.11111 26.7776H25.8889" stroke="#73AEAC" stroke-width="2" stroke-linecap="round"/>
</svg>
