<svg width="172" height="24" viewBox="0 0 172 24" fill="none" xmlns="http://www.w3.org/2000/svg">
<path d="M0 12.0167C0 9.70236 0.501692 7.64395 1.50508 5.84145C2.50846 4.01669 3.90205 2.60362 5.68585 1.60222C7.49194 0.57858 9.53216 0.0667585 11.8065 0.0667585C14.5937 0.0667585 16.9795 0.801111 18.964 2.26982C20.9484 3.73852 22.2751 5.74131 22.9441 8.27816H16.6562C16.1879 7.29903 15.519 6.55355 14.6494 6.04172C13.8021 5.5299 12.8322 5.27399 11.7396 5.27399C9.9781 5.27399 8.55107 5.88595 7.45849 7.10987C6.36592 8.3338 5.81963 9.9694 5.81963 12.0167C5.81963 14.064 6.36592 15.6996 7.45849 16.9235C8.55107 18.1474 9.9781 18.7594 11.7396 18.7594C12.8322 18.7594 13.8021 18.5035 14.6494 17.9917C15.519 17.4798 16.1879 16.7344 16.6562 15.7552H22.9441C22.2751 18.2921 20.9484 20.2949 18.964 21.7636C16.9795 23.21 14.5937 23.9332 11.8065 23.9332C9.53216 23.9332 7.49194 23.4325 5.68585 22.4312C3.90205 21.4075 2.50846 19.9944 1.50508 18.1919C0.501692 16.3894 0 14.331 0 12.0167Z" fill="#73AEAC"/>
<path d="M32.1658 19.3602H39.6577V23.7663H26.4465V0.333797H32.1658V19.3602Z" fill="#73AEAC"/>
<path d="M53.4898 24C51.2824 24 49.2533 23.4882 47.4026 22.4645C45.5742 21.4409 44.1137 20.0167 43.0212 18.1919C41.9509 16.3449 41.4157 14.2754 41.4157 11.9833C41.4157 9.69124 41.9509 7.63282 43.0212 5.80807C44.1137 3.98331 45.5742 2.55911 47.4026 1.53547C49.2533 0.511822 51.2824 0 53.4898 0C55.6973 0 57.7152 0.511822 59.5436 1.53547C61.3943 2.55911 62.8436 3.98331 63.8916 5.80807C64.9618 7.63282 65.497 9.69124 65.497 11.9833C65.497 14.2754 64.9618 16.3449 63.8916 18.1919C62.8213 20.0167 61.372 21.4409 59.5436 22.4645C57.7152 23.4882 55.6973 24 53.4898 24ZM53.4898 18.7928C55.3628 18.7928 56.8567 18.1697 57.9716 16.9235C59.1088 15.6773 59.6773 14.0306 59.6773 11.9833C59.6773 9.91377 59.1088 8.26704 57.9716 7.04311C56.8567 5.79694 55.3628 5.17385 53.4898 5.17385C51.5945 5.17385 50.0783 5.78581 48.9411 7.00973C47.8263 8.23366 47.2688 9.89152 47.2688 11.9833C47.2688 14.0529 47.8263 15.7107 48.9411 16.9569C50.0783 18.1808 51.5945 18.7928 53.4898 18.7928Z" fill="#73AEAC"/>
<path d="M82.2914 23.7663L74.3981 13.4186V23.7663H68.6788V0.333797H74.3981V10.6147L82.2245 0.333797H88.9472L79.8498 11.8164L89.2816 23.7663H82.2914Z" fill="#73AEAC"/>
<path d="M124.309 0.333797L118.188 23.7663H111.265L107.519 8.34492L103.639 23.7663H96.7156L90.7622 0.333797H96.8828L100.261 17.3908L104.442 0.333797H110.73L114.743 17.3908L118.155 0.333797H124.309Z" fill="#73AEAC"/>
<path d="M132.896 0.333797V23.7663H127.177V0.333797H132.896Z" fill="#73AEAC"/>
<path d="M145.536 24C143.819 24 142.281 23.7218 140.921 23.1655C139.561 22.6092 138.468 21.7858 137.643 20.6954C136.84 19.605 136.417 18.2921 136.372 16.7566H142.459C142.548 17.6245 142.849 18.2921 143.362 18.7594C143.875 19.2044 144.544 19.427 145.369 19.427C146.216 19.427 146.885 19.2378 147.376 18.8595C147.866 18.459 148.112 17.9138 148.112 17.2239C148.112 16.6453 147.911 16.1669 147.51 15.7886C147.131 15.4103 146.651 15.0987 146.071 14.854C145.514 14.6092 144.711 14.331 143.663 14.0195C142.147 13.5522 140.91 13.0848 139.951 12.6175C138.992 12.1502 138.167 11.4604 137.476 10.548C136.785 9.6356 136.439 8.44506 136.439 6.97636C136.439 4.79555 137.23 3.09318 138.814 1.86926C140.397 0.623088 142.459 0 145.001 0C147.588 0 149.672 0.623088 151.256 1.86926C152.839 3.09318 153.686 4.80668 153.797 7.00973H147.61C147.565 6.25313 147.287 5.66342 146.774 5.24061C146.261 4.79555 145.603 4.57302 144.8 4.57302C144.109 4.57302 143.552 4.76217 143.128 5.14047C142.704 5.49652 142.493 6.01947 142.493 6.70932C142.493 7.46592 142.849 8.05563 143.563 8.47844C144.276 8.90125 145.391 9.35744 146.908 9.84701C148.424 10.3588 149.65 10.8484 150.587 11.3157C151.545 11.783 152.37 12.4618 153.062 13.3519C153.753 14.242 154.098 15.388 154.098 16.79C154.098 18.1252 153.753 19.338 153.062 20.4284C152.393 21.5188 151.412 22.3866 150.118 23.032C148.825 23.6773 147.298 24 145.536 24Z" fill="#73AEAC"/>
<path d="M163.337 4.90682V9.64673H170.997V14.0529H163.337V19.1933H172V23.7663H157.618V0.333797H172V4.90682H163.337Z" fill="#73AEAC"/>
</svg>
