<svg width="24" height="24" viewBox="0 0 24 24" fill="none" xmlns="http://www.w3.org/2000/svg">
<path d="M18.2188 6.51431L18.2188 6.51431C18.4039 6.68942 18.5446 6.90547 18.6318 7.14164L17.7679 6.32429L14.6561 3.38038L13.8125 2.58226V3.74359V6.49219C13.8125 6.87602 14.124 7.1875 14.5078 7.1875H17.4243H18.648C18.7046 7.35539 18.7344 7.53257 18.7344 7.7118V19.8516C18.7344 20.7601 17.9944 21.5 17.0859 21.5H6.14844C5.23993 21.5 4.5 20.7601 4.5 19.8516V4.14844C4.5 3.23993 5.23993 2.5 6.14844 2.5H13.3194C13.7431 2.5 14.1445 2.65977 14.4523 2.95094L14.7949 2.58882L14.4523 2.95095L18.2188 6.51431ZM13.6406 3.17188V2.67188H13.1406H6.14844C5.33382 2.67188 4.67188 3.33382 4.67188 4.14844V19.8516C4.67188 20.6662 5.33382 21.3281 6.14844 21.3281H17.0859C17.9006 21.3281 18.5625 20.6662 18.5625 19.8516V7.85938V7.35938H18.0625H14.5078C14.0301 7.35938 13.6406 6.96991 13.6406 6.49219V3.17188Z" fill="#082928" stroke="#082928"/>
<path d="M15.7969 9.8125H7.20312C6.87953 9.8125 6.61719 10.0748 6.61719 10.3984C6.61719 10.722 6.87953 10.9844 7.20312 10.9844H15.7969C16.1205 10.9844 16.3828 10.722 16.3828 10.3984C16.3828 10.0748 16.1205 9.8125 15.7969 9.8125Z" fill="#082928"/>
<path d="M15.7969 12.9375H7.20312C6.87953 12.9375 6.61719 13.1998 6.61719 13.5234C6.61719 13.847 6.87953 14.1094 7.20312 14.1094H15.7969C16.1205 14.1094 16.3828 13.847 16.3828 13.5234C16.3828 13.1998 16.1205 12.9375 15.7969 12.9375Z" fill="#082928"/>
<path d="M10.0437 16.0625H7.20312C6.87953 16.0625 6.61719 16.3248 6.61719 16.6484C6.61719 16.972 6.87953 17.2344 7.20312 17.2344H10.0437C10.3673 17.2344 10.6297 16.972 10.6297 16.6484C10.6297 16.3248 10.3673 16.0625 10.0437 16.0625Z" fill="#082928"/>
</svg>
