<svg width="48" height="48" viewBox="0 0 48 48" fill="none" xmlns="http://www.w3.org/2000/svg">
<path d="M12.5106 23.9969C12.3387 23.4178 11.7325 23.0921 11.1625 23.264C10.5835 23.4359 10.2578 24.0421 10.4297 24.6121C10.5744 25.0826 10.9997 25.3902 11.4701 25.3902C11.5697 25.3902 11.6782 25.3721 11.7777 25.3449C12.3568 25.173 12.6825 24.5669 12.5106 23.9969Z" fill="#082928"/>
<path d="M10.1853 36.6087C9.67866 36.283 9.00914 36.4278 8.68344 36.9344C8.35773 37.4411 8.50249 38.1106 9.00914 38.4363C9.19009 38.5539 9.39818 38.6082 9.59723 38.6082C9.95008 38.6082 10.3029 38.4363 10.511 38.1106C10.8367 37.6039 10.692 36.9344 10.1853 36.6087Z" fill="#082928"/>
<path d="M16.709 23.9966C16.709 23.3995 16.2204 22.9109 15.6233 22.9109C15.0262 22.9109 14.5376 23.3995 14.5376 23.9966C14.5376 24.5937 15.0262 25.0823 15.6233 25.0823C16.2204 25.0823 16.709 24.5937 16.709 23.9966Z" fill="#082928"/>
<path d="M6.3041 31.3976C6.8379 31.3976 7.29932 31.0085 7.38074 30.4657C7.46217 29.8685 7.05503 29.3257 6.4579 29.2352C5.86077 29.1538 5.31792 29.5609 5.2365 30.1581C5.15507 30.7552 5.57125 31.298 6.15934 31.3795C6.20457 31.3976 6.24981 31.3976 6.3041 31.3976Z" fill="#082928"/>
<path d="M8.82837 27.2626C9.21741 26.8103 9.17218 26.1227 8.71076 25.7336C8.25838 25.3446 7.57078 25.3898 7.18174 25.8512C6.7927 26.3036 6.83793 26.9912 7.29935 27.3803C7.50745 27.5612 7.75173 27.6426 8.00505 27.6426C8.31267 27.6426 8.61123 27.5069 8.82837 27.2626Z" fill="#082928"/>
<path d="M41.0823 14.6773C41.2361 14.6773 41.3899 14.6411 41.5347 14.5778C42.0775 14.3244 42.3128 13.6821 42.0685 13.1392C41.8242 12.5964 41.1728 12.3611 40.6299 12.6054C40.0871 12.8497 39.8428 13.5011 40.0961 14.044C40.2771 14.4421 40.6752 14.6773 41.0823 14.6773Z" fill="#082928"/>
<path d="M20.8975 23.9966C20.8975 23.3995 20.4089 22.9109 19.8118 22.9109C19.2146 22.9109 18.7261 23.3995 18.7261 23.9966C18.7261 24.5937 19.2146 25.0823 19.8118 25.0823C20.4089 25.0823 20.8975 24.5937 20.8975 23.9966Z" fill="#082928"/>
<path d="M6.44 33.415C5.89715 33.6683 5.65287 34.3107 5.9062 34.8535C6.08715 35.2516 6.48523 35.4868 6.89237 35.4868C7.04617 35.4868 7.19998 35.4507 7.34474 35.3873C7.88759 35.134 8.13187 34.4916 7.87854 33.9488C7.63426 33.4059 6.98284 33.1617 6.44 33.415Z" fill="#082928"/>
<path d="M36.2151 22.6487C35.6361 22.8206 35.3104 23.4268 35.4823 24.0058C35.627 24.4763 36.0523 24.7749 36.5227 24.7749C36.6223 24.7749 36.7308 24.7568 36.8394 24.7296C37.4184 24.5577 37.7351 23.9516 37.5632 23.3725C37.3913 22.8025 36.7851 22.4768 36.2151 22.6487Z" fill="#082928"/>
<path d="M40.6933 20.6129C40.241 20.2239 39.5533 20.2782 39.1643 20.7305C38.7753 21.1829 38.8295 21.8705 39.2819 22.2595C39.49 22.4315 39.7433 22.5219 39.9876 22.5219C40.2952 22.5219 40.5938 22.3953 40.8109 22.1419C41.2 21.6896 41.1457 21.002 40.6933 20.6129Z" fill="#082928"/>
<path d="M25.0864 23.9966C25.0864 23.3995 24.5979 22.9109 24.0007 22.9109C23.4036 22.9109 22.915 23.3995 22.915 23.9966C22.915 24.5937 23.4036 25.0823 24.0007 25.0823C24.5979 25.0823 25.0864 24.5937 25.0864 23.9966Z" fill="#082928"/>
<path d="M39.2911 11.0586C39.6168 10.5519 39.472 9.88243 38.9653 9.55673C38.4587 9.23102 37.7892 9.37578 37.4635 9.88243C37.1378 10.3891 37.2825 11.0586 37.7892 11.3843C37.9701 11.5019 38.1782 11.5562 38.3773 11.5562C38.7301 11.5562 39.083 11.3843 39.2911 11.0586Z" fill="#082928"/>
<path d="M32.3696 22.9109C31.7725 22.9109 31.2839 23.3995 31.2839 23.9966C31.2839 24.5937 31.7725 25.0823 32.3696 25.0823C32.9668 25.0823 33.4553 24.5937 33.4553 23.9966C33.4553 23.3995 32.9668 22.9109 32.3696 22.9109Z" fill="#082928"/>
<path d="M29.2666 23.9966C29.2666 23.3995 28.778 22.9109 28.1809 22.9109C27.5838 22.9109 27.0952 23.3995 27.0952 23.9966C27.0952 24.5937 27.5838 25.0823 28.1809 25.0823C28.778 25.0823 29.2666 24.5937 29.2666 23.9966Z" fill="#082928"/>
<path d="M41.8335 16.5956C41.2364 16.5142 40.6935 16.9304 40.6121 17.5185C40.5307 18.1156 40.9469 18.6584 41.5349 18.7399C41.5892 18.7489 41.6345 18.7489 41.6888 18.7489C42.2226 18.7489 42.684 18.3599 42.7654 17.808C42.8378 17.229 42.4306 16.6771 41.8335 16.5956Z" fill="#082928"/>
<path d="M34.4145 8.22691H17.8577L22.2276 3.85699C22.6529 3.43176 22.6529 2.74415 22.2276 2.31892C21.8024 1.89369 21.1148 1.89369 20.6896 2.31892L14.4649 8.54357C14.0397 8.9688 14.0397 9.6564 14.4649 10.0816L20.6896 16.3063C20.8977 16.5144 21.1781 16.6229 21.4586 16.6229C21.7391 16.6229 22.0105 16.5144 22.2276 16.3063C22.6529 15.881 22.6529 15.1934 22.2276 14.7682L17.8577 10.3983H34.4055C35.0026 10.3983 35.4912 9.90973 35.4912 9.3126C35.4912 8.71547 35.0117 8.22691 34.4145 8.22691Z" fill="#082928"/>
<path d="M26.0365 31.6961C25.6112 31.2709 24.9236 31.2709 24.4984 31.6961C24.0732 32.1213 24.0732 32.809 24.4984 33.2342L28.8683 37.6041H13.5691C12.972 37.6041 12.4834 38.0927 12.4834 38.6898C12.4834 39.2869 12.972 39.7755 13.5691 39.7755H28.8683L24.4984 44.1454C24.0732 44.5706 24.0732 45.2582 24.4984 45.6835C24.7065 45.8916 24.987 46.0001 25.2674 46.0001C25.5479 46.0001 25.8193 45.8916 26.0365 45.6835L32.2611 39.4588C32.6863 39.0336 32.6863 38.346 32.2611 37.9208L26.0365 31.6961Z" fill="#082928"/>
</svg>
