<svg width="34" height="32" viewBox="0 0 34 32" fill="none" xmlns="http://www.w3.org/2000/svg">
<path d="M22.6 15.4662H21L18.6 20.2662L15.4 10.6662L13 15.4662H11.4M16.989 5.28351C13.7901 1.54365 8.45559 0.537639 4.44751 3.96223C0.43943 7.38682 -0.124852 13.1126 3.02272 17.1629C5.40014 20.2221 12.1541 26.3637 15.3168 29.186C15.8982 29.7048 16.1889 29.9643 16.5293 30.0664C16.8248 30.155 17.1532 30.155 17.4488 30.0664C17.7892 29.9643 18.0799 29.7048 18.6613 29.186C21.824 26.3637 28.5779 20.2221 30.9554 17.1629C34.1029 13.1126 33.6075 7.3508 29.5306 3.96223C25.4536 0.573662 20.188 1.54365 16.989 5.28351Z" stroke="#73AEAC" stroke-width="2" stroke-linecap="round" stroke-linejoin="round"/>
</svg>
