<svg width="34" height="32" viewBox="0 0 34 32" fill="none" xmlns="http://www.w3.org/2000/svg">
<path d="M1 23.9996V23.7593C1 23.2529 1 22.9997 1.03873 22.753C1.07312 22.534 1.13018 22.3192 1.20898 22.112C1.29774 21.8786 1.42336 21.6587 1.6746 21.2191L7.4 11.1996M1 23.9996C1 27.5342 3.86538 30.3996 7.4 30.3996C10.9346 30.3996 13.8 27.5342 13.8 23.9996M1 23.9996V23.6796C1 23.2316 1 23.0075 1.08719 22.8364C1.16389 22.6859 1.28628 22.5635 1.43681 22.4868C1.60794 22.3996 1.83196 22.3996 2.28 22.3996H12.52C12.968 22.3996 13.1921 22.3996 13.3632 22.4868C13.5137 22.5635 13.6361 22.6859 13.7128 22.8364C13.8 23.0075 13.8 23.2316 13.8 23.6796V23.9996M7.4 11.1996L13.1254 21.2191C13.3766 21.6587 13.5023 21.8786 13.591 22.112C13.6698 22.3192 13.7269 22.534 13.7613 22.753C13.8 22.9997 13.8 23.2529 13.8 23.7593V23.9996M7.4 11.1996L26.6 7.99961M20.2 20.7996V20.5593C20.2 20.0529 20.2 19.7997 20.2387 19.553C20.2731 19.334 20.3302 19.1192 20.409 18.912C20.4977 18.6786 20.6234 18.4587 20.8746 18.0191L26.6 7.99961M20.2 20.7996C20.2 24.3342 23.0654 27.1996 26.6 27.1996C30.1346 27.1996 33 24.3342 33 20.7996M20.2 20.7996V20.4796C20.2 20.0316 20.2 19.8075 20.2872 19.6364C20.3639 19.4859 20.4863 19.3635 20.6368 19.2868C20.8079 19.1996 21.032 19.1996 21.48 19.1996H31.72C32.168 19.1996 32.3921 19.1996 32.5632 19.2868C32.7137 19.3635 32.8361 19.4859 32.9128 19.6364C33 19.8075 33 20.0316 33 20.4796V20.7996M26.6 7.99961L32.3254 18.0191C32.5766 18.4587 32.7023 18.6786 32.791 18.912C32.8698 19.1192 32.9269 19.334 32.9613 19.553C33 19.7997 33 20.0529 33 20.5593V20.7996M17 1.59961V9.59961" stroke="#73AEAC" stroke-width="2" stroke-linecap="round" stroke-linejoin="round"/>
</svg>
