<svg width="48" height="48" viewBox="0 0 48 48" fill="none" xmlns="http://www.w3.org/2000/svg">
<path d="M36.5 20.6666H35.6666V15.6666C35.6666 12.5616 34.455 9.63 32.2533 7.40828C30.0366 5.21164 27.105 4 24 4C17.5684 4 12.3334 9.235 12.3334 15.6666V20.6666H11.5C10.1216 20.6666 9 21.7883 9 23.1666V41.5C9 42.8784 10.1216 44 11.5 44H36.5C37.8784 44 39 42.8784 39 41.5V23.1666C39 21.7884 37.8784 20.6666 36.5 20.6666ZM14 15.6666C14 10.1516 18.485 5.66664 24 5.66664C26.6634 5.66664 29.1766 6.705 31.0734 8.58828C32.9616 10.49 34 13.0034 34 15.6666V20.6666H14V15.6666ZM37.3334 41.5C37.3334 41.9584 36.9584 42.3334 36.5 42.3334H11.5C11.0416 42.3334 10.6666 41.9584 10.6666 41.5V23.1666C10.6666 22.7083 11.0416 22.3333 11.5 22.3333H13.1666H34.8333H36.5C36.9584 22.3333 37.3334 22.7083 37.3334 23.1666V41.5Z" fill="white"/>
<path d="M23.9994 29C22.161 29 20.666 30.495 20.666 32.3334C20.666 33.8817 21.7327 35.175 23.166 35.5484V38.1667C23.166 38.6267 23.5394 39.0001 23.9994 39.0001C24.4594 39.0001 24.8327 38.6267 24.8327 38.1667V35.5484C26.2661 35.175 27.3327 33.8817 27.3327 32.3334C27.3327 30.495 25.8377 29 23.9994 29ZM23.9994 34C23.0794 34 22.3327 33.2534 22.3327 32.3334C22.3327 31.4134 23.0794 30.6667 23.9994 30.6667C24.9194 30.6667 25.666 31.4134 25.666 32.3334C25.666 33.2534 24.9194 34 23.9994 34Z" fill="white"/>
</svg>
