<svg width="48" height="48" viewBox="0 0 48 48" fill="none" xmlns="http://www.w3.org/2000/svg">
<path d="M38 24H24M24 24L30 30M24 24L30 18M38 12V10C38 8.93913 37.5786 7.92172 36.8284 7.17157C36.0783 6.42143 35.0609 6 34 6H14C12.9391 6 11.9217 6.42143 11.1716 7.17157C10.4214 7.92172 10 8.93913 10 10V38C10 39.0609 10.4214 40.0783 11.1716 40.8284C11.9217 41.5786 12.9391 42 14 42H34C35.0609 42 36.0783 41.5786 36.8284 40.8284C37.5786 40.0783 38 39.0609 38 38V36" stroke="#0F294D" stroke-width="2.5" stroke-linecap="round" stroke-linejoin="round"/>
</svg>
