<svg width="48" height="48" viewBox="0 0 48 48" fill="none" xmlns="http://www.w3.org/2000/svg">
<path d="M24.0001 24H36.4445M36.4445 24L31.1112 29.3333M36.4445 24L31.1112 18.6667M36.4445 13.3333V11.5556C36.4445 10.6126 36.0699 9.70819 35.4032 9.0414C34.7364 8.3746 33.832 8 32.889 8H15.1112C14.1682 8 13.2639 8.3746 12.5971 9.0414C11.9303 9.70819 11.5557 10.6126 11.5557 11.5556V36.4444C11.5557 37.3874 11.9303 38.2918 12.5971 38.9586C13.2639 39.6254 14.1682 40 15.1112 40H32.889C33.832 40 34.7364 39.6254 35.4032 38.9586C36.0699 38.2918 36.4445 37.3874 36.4445 36.4444V34.6667" stroke="#C3CCD9" stroke-width="2.5" stroke-linecap="round" stroke-linejoin="round"/>
</svg>
