<svg width="34" height="34" viewBox="0 0 34 34" fill="none" xmlns="http://www.w3.org/2000/svg">
<path d="M11.4 32.6004L17 27.0004L22.6 32.6004M17 1.40039V4.60039M12.2 17.4004V20.6004M17 14.2004V20.6004M21.8 11.0004V20.6004M33 5.56039V26.0404C33 26.1665 32.9752 26.2913 32.9269 26.4078C32.8787 26.5242 32.808 26.6301 32.7188 26.7192C32.6297 26.8084 32.5239 26.8791 32.4074 26.9273C32.2909 26.9756 32.1661 27.0004 32.04 27.0004H1.96C1.70539 27.0004 1.46121 26.8993 1.28118 26.7192C1.10114 26.5392 1 26.295 1 26.0404V5.56039C1 5.30578 1.10114 5.0616 1.28118 4.88157C1.46121 4.70153 1.70539 4.60039 1.96 4.60039H32.04C32.2946 4.60039 32.5388 4.70153 32.7188 4.88157C32.8989 5.0616 33 5.30578 33 5.56039Z" stroke="#73AEAC" stroke-width="2" stroke-linecap="round" stroke-linejoin="round"/>
</svg>
