<svg width="24" height="24" viewBox="0 0 24 24" fill="none" xmlns="http://www.w3.org/2000/svg">
<path d="M12 12.5C12.1326 12.5 12.2598 12.4473 12.3536 12.3536C12.4473 12.2598 12.5 12.1326 12.5 12C12.5 11.8674 12.4473 11.7402 12.3536 11.6464C12.2598 11.5527 12.1326 11.5 12 11.5C11.8674 11.5 11.7402 11.5527 11.6464 11.6464C11.5527 11.7402 11.5 11.8674 11.5 12C11.5 12.1326 11.5527 12.2598 11.6464 12.3536C11.7402 12.4473 11.8674 12.5 12 12.5ZM12 18.5C12.1326 18.5 12.2598 18.4473 12.3536 18.3536C12.4473 18.2598 12.5 18.1326 12.5 18C12.5 17.8674 12.4473 17.7402 12.3536 17.6464C12.2598 17.5527 12.1326 17.5 12 17.5C11.8674 17.5 11.7402 17.5527 11.6464 17.6464C11.5527 17.7402 11.5 17.8674 11.5 18C11.5 18.1326 11.5527 18.2598 11.6464 18.3536C11.7402 18.4473 11.8674 18.5 12 18.5ZM12 6.5C12.1326 6.5 12.2598 6.44732 12.3536 6.35355C12.4473 6.25979 12.5 6.13261 12.5 6C12.5 5.86739 12.4473 5.74021 12.3536 5.64645C12.2598 5.55268 12.1326 5.5 12 5.5C11.8674 5.5 11.7402 5.55268 11.6464 5.64645C11.5527 5.74021 11.5 5.86739 11.5 6C11.5 6.13261 11.5527 6.25979 11.6464 6.35355C11.7402 6.44732 11.8674 6.5 12 6.5Z" fill="#0F294D" stroke="#73AEAC" stroke-width="1.5" stroke-linecap="round" stroke-linejoin="round"/>
</svg>
