<svg width="25" height="25" viewBox="0 0 25 25" fill="none" xmlns="http://www.w3.org/2000/svg">
<path d="M19.0242 6.61179H10.0668C9.59995 6.55754 9.1269 6.60959 8.68303 6.76404C8.23916 6.91849 7.83598 7.17134 7.50366 7.50366C7.17134 7.83598 6.91849 8.23916 6.76404 8.68303C6.60959 9.1269 6.55754 9.59995 6.61179 10.0668V19.0242C6.55754 19.491 6.60959 19.9641 6.76404 20.4079C6.91849 20.8518 7.17134 21.255 7.50366 21.5873C7.83598 21.9196 8.23916 22.1725 8.68303 22.3269C9.1269 22.4814 9.59995 22.5334 10.0668 22.4792H19.0242C19.491 22.5334 19.9641 22.4814 20.4079 22.3269C20.8518 22.1725 21.255 21.9196 21.5873 21.5873C21.9196 21.255 22.1725 20.8518 22.3269 20.4079C22.4814 19.9641 22.5334 19.491 22.4792 19.0242V10.0668C22.5334 9.59995 22.4814 9.1269 22.3269 8.68303C22.1725 8.23916 21.9196 7.83598 21.5873 7.50366C21.255 7.17134 20.8518 6.91849 20.4079 6.76404C19.9641 6.60959 19.491 6.55754 19.0242 6.61179ZM20.9436 19.0242C20.9436 20.3877 20.3877 20.9436 19.0242 20.9436H10.0668C8.70321 20.9436 8.14734 20.3877 8.14734 19.0242V10.0668C8.14734 8.70321 8.70321 8.14734 10.0668 8.14734H19.0242C20.3877 8.14734 20.9436 8.70321 20.9436 10.0668V19.0242ZM4.05253 5.96686V14.9345C4.05253 16.1629 4.54698 16.4629 4.70975 16.5622C4.87565 16.6722 4.99239 16.8423 5.0354 17.0367C5.07841 17.2311 5.04434 17.4346 4.94036 17.6044C4.83637 17.7742 4.67058 17.897 4.47788 17.947C4.28518 17.997 4.08059 17.9703 3.90717 17.8725C3.43259 17.5531 3.05296 17.1116 2.80829 16.5946C2.56362 16.0775 2.46298 15.504 2.51698 14.9345V5.96686C2.46843 5.50188 2.5243 5.03194 2.68051 4.5913C2.83672 4.15067 3.08932 3.75047 3.4199 3.4199C3.75047 3.08932 4.15067 2.83672 4.5913 2.68051C5.03194 2.5243 5.50188 2.46843 5.96686 2.51698H14.9345C15.504 2.46232 16.0778 2.56266 16.595 2.80738C17.1122 3.0521 17.5536 3.43211 17.8725 3.90717C17.9252 3.99314 17.9605 4.08865 17.9762 4.18824C17.992 4.28783 17.988 4.38956 17.9645 4.48762C17.941 4.58567 17.8984 4.67813 17.8391 4.75972C17.7799 4.8413 17.7051 4.91042 17.6191 4.96312C17.5332 5.01581 17.4377 5.05106 17.3381 5.06685C17.2385 5.08264 17.1368 5.07865 17.0387 5.05513C16.9406 5.0316 16.8482 4.98899 16.7666 4.92973C16.685 4.87047 16.6159 4.79572 16.5632 4.70975C16.4608 4.54698 16.1609 4.05253 14.9345 4.05253H5.96686C4.60738 4.05253 4.05253 4.60738 4.05253 5.96686ZM17.6473 12.2933C17.7186 12.3646 17.7752 12.4493 17.8139 12.5425C17.8525 12.6357 17.8723 12.7355 17.8723 12.8364C17.8723 12.9373 17.8525 13.0372 17.8139 13.1303C17.7752 13.2235 17.7186 13.3082 17.6473 13.3795L14.2384 16.7976C14.1672 16.8691 14.0827 16.9257 13.9896 16.9644C13.8965 17.0031 13.7966 17.023 13.6958 17.023C13.595 17.023 13.4952 17.0031 13.4021 16.9644C13.3089 16.9257 13.2244 16.8691 13.1532 16.7976L11.4437 15.088C11.308 14.9425 11.2342 14.75 11.2377 14.5511C11.2412 14.3522 11.3218 14.1624 11.4625 14.0217C11.6031 13.8811 11.7929 13.8005 11.9918 13.797C12.1907 13.7935 12.3832 13.8673 12.5288 14.0029L13.6927 15.1658L16.5591 12.2995C16.63 12.2273 16.7144 12.1699 16.8076 12.1304C16.9007 12.091 17.0008 12.0705 17.1019 12.0699C17.2031 12.0693 17.3033 12.0888 17.3969 12.1271C17.4905 12.1655 17.5756 12.222 17.6473 12.2933Z" fill="#73AEAC"/>
</svg>
