<svg width="49" height="48" viewBox="0 0 49 48" fill="none" xmlns="http://www.w3.org/2000/svg">
<path d="M40.9376 15.7397C40.2752 15.7397 39.7382 16.2767 39.7382 16.939C39.7382 17.6014 40.2752 18.1384 40.9376 18.1384C41.4414 18.1384 41.8512 18.5473 41.8512 19.0498V34.5918C41.8512 35.8772 40.8055 36.9229 39.5201 36.9229C38.2347 36.9229 37.189 35.8772 37.189 34.5918V11.9888C37.189 10.1635 35.703 8.67847 33.8764 8.67847H7.55999C5.73484 8.67847 4.25 10.1635 4.25 11.9888V36.0093C4.25 37.7941 5.66911 39.25 7.43717 39.3154C7.47763 39.3196 7.51857 39.3217 7.56014 39.3217H35.9896H39.5201C42.1282 39.3217 44.25 37.1999 44.25 34.5918V19.0498C44.25 17.2247 42.764 15.7397 40.9376 15.7397ZM6.64877 36.0093V11.9888C6.64877 11.4862 7.05752 11.0772 7.55999 11.0772H33.8764C34.3802 11.0772 34.7902 11.4862 34.7902 11.9888V34.5918C34.7902 35.439 35.0152 36.2343 35.407 36.9229H7.55999C7.05752 36.9229 6.64877 36.513 6.64877 36.0093Z" fill="#C3CCD9"/>
<path d="M29.2352 18.7415H21.7697C21.1073 18.7415 20.5703 19.2785 20.5703 19.9408C20.5703 20.6032 21.1073 21.1402 21.7697 21.1402H29.2352C29.8975 21.1402 30.4345 20.6032 30.4345 19.9408C30.4345 19.2785 29.8975 18.7415 29.2352 18.7415Z" fill="#C3CCD9"/>
<path d="M29.2337 24.7122H12.4367C11.7743 24.7122 11.2373 25.2492 11.2373 25.9115C11.2373 26.5739 11.7743 27.1109 12.4367 27.1109H29.2337C29.8961 27.1109 30.4331 26.5739 30.4331 25.9115C30.4331 25.2492 29.8961 24.7122 29.2337 24.7122Z" fill="#C3CCD9"/>
<path d="M29.2337 30.6829H12.4367C11.7743 30.6829 11.2373 31.2199 11.2373 31.8822C11.2373 32.5446 11.7743 33.0816 12.4367 33.0816H29.2337C29.8961 33.0816 30.4331 32.5446 30.4331 31.8822C30.4331 31.2199 29.8961 30.6829 29.2337 30.6829Z" fill="#C3CCD9"/>
<path d="M12.2033 21.1407H16.986C17.6483 21.1407 18.1854 20.6037 18.1854 19.9413V15.1586C18.1854 14.4962 17.6483 13.9592 16.986 13.9592C16.3236 13.9592 15.7866 14.4962 15.7866 15.1586V18.7419H12.2033C11.5409 18.7419 11.0039 19.2789 11.0039 19.9413C11.0039 20.6037 11.5409 21.1407 12.2033 21.1407Z" fill="#C3CCD9"/>
</svg>
