<svg width="48" height="48" viewBox="0 0 48 48" fill="none" xmlns="http://www.w3.org/2000/svg">
<path d="M33.0153 22.4018C33.9451 31.0029 37.6015 33.6033 37.6015 33.6033H8.79785C8.79785 33.6033 13.5985 30.19 13.5985 18.2413C13.5985 15.5258 14.6098 12.9206 16.41 11.0004C18.2119 9.08014 20.6554 8 23.1997 8C23.739 8 24.275 8.04801 24.7999 8.14402M25.968 38.4039C25.687 38.8893 25.2833 39.2922 24.7975 39.5724C24.3116 39.8525 23.7606 40 23.1997 40C22.6388 40 22.0878 39.8525 21.6019 39.5724C21.116 39.2922 20.7123 38.8893 20.4313 38.4039M34.4011 17.6012C35.6743 17.6012 36.8954 17.0954 37.7957 16.1952C38.6959 15.2949 39.2017 14.0738 39.2017 12.8006C39.2017 11.5274 38.6959 10.3064 37.7957 9.40607C36.8954 8.50578 35.6743 8 34.4011 8C33.1279 8 31.9069 8.50578 31.0066 9.40607C30.1063 10.3064 29.6005 11.5274 29.6005 12.8006C29.6005 14.0738 30.1063 15.2949 31.0066 16.1952C31.9069 17.0954 33.1279 17.6012 34.4011 17.6012Z" stroke="#73AEAC" stroke-width="2.5" stroke-linecap="round" stroke-linejoin="round"/>
</svg>
