<svg width="48" height="48" viewBox="0 0 48 48" fill="none" xmlns="http://www.w3.org/2000/svg">
<path d="M26.7683 38.4039C26.4873 38.8893 26.0836 39.2922 25.5977 39.5724C25.1119 39.8525 24.5608 40 24 40C23.4391 40 22.8881 39.8525 22.4022 39.5724C21.9163 39.2922 21.5126 38.8893 21.2316 38.4039M33.6012 18.2413C33.6012 15.5258 32.5899 12.9206 30.7896 11.0004C28.9878 9.08014 26.5443 8 24 8C21.4541 8 19.0121 9.07854 17.2103 11.0004C15.4101 12.9206 14.3988 15.5258 14.3988 18.2413C14.3988 30.19 9.59814 33.6033 9.59814 33.6033H38.4018C38.4018 33.6033 33.6012 30.19 33.6012 18.2413Z" stroke="white" stroke-width="2.5" stroke-linecap="round" stroke-linejoin="round"/>
</svg>
