<svg width="49" height="48" viewBox="0 0 49 48" fill="none" xmlns="http://www.w3.org/2000/svg">
<path d="M10.75 40V38C10.75 34.287 12.225 30.726 14.8505 28.1005C17.476 25.475 21.037 24 24.75 24M24.75 24C28.463 24 32.024 25.475 34.6495 28.1005C37.275 30.726 38.75 34.287 38.75 38V40M24.75 24C26.8717 24 28.9066 23.1571 30.4069 21.6569C31.9071 20.1566 32.75 18.1217 32.75 16C32.75 13.8783 31.9071 11.8434 30.4069 10.3431C28.9066 8.84285 26.8717 8 24.75 8C22.6283 8 20.5934 8.84285 19.0931 10.3431C17.5929 11.8434 16.75 13.8783 16.75 16C16.75 18.1217 17.5929 20.1566 19.0931 21.6569C20.5934 23.1571 22.6283 24 24.75 24Z" stroke="#C3CCD9" stroke-width="2.5" stroke-linecap="round" stroke-linejoin="round"/>
</svg>
