<svg width="16" height="17" viewBox="0 0 16 17" fill="none" xmlns="http://www.w3.org/2000/svg">
<path d="M14.3556 6.51948C14.0276 5.8224 13.5929 5.19093 13.0599 4.64147C12.8056 4.37084 12.5186 4.12481 12.2234 3.90338L12.7482 3.2063C12.8795 3.02588 12.8467 2.77166 12.6662 2.64044C12.4858 2.50923 12.2316 2.54203 12.1004 2.72245L11.5427 3.46053C11.1737 3.23911 10.78 3.05869 10.3782 2.91107C10.0255 2.78806 9.66469 2.68965 9.29565 2.61584C9.05782 2.57483 8.8118 2.54203 8.57397 2.52563V1.30369H9.38586C9.60729 1.30369 9.78771 1.12327 9.78771 0.901845C9.78771 0.68042 9.60729 0.5 9.38586 0.5H6.95019C6.72876 0.5 6.54834 0.68042 6.54834 0.901845C6.54834 1.12327 6.72876 1.30369 6.95019 1.30369H7.76208V2.49282C6.82717 2.52563 5.90047 2.74705 5.04757 3.1407C4.35049 3.46873 3.71902 3.89518 3.16136 4.42824C2.38227 5.16633 1.7836 6.09303 1.41456 7.10174C1.28335 7.45438 1.18494 7.83162 1.11113 8.20887C1.03732 8.58611 1.00452 8.96335 0.988116 9.3406C0.963513 10.4231 1.19314 11.5056 1.66059 12.4897C1.98863 13.1786 2.41508 13.8019 2.94814 14.3514C3.69442 15.1304 4.62112 15.7291 5.62984 16.09C5.98248 16.213 6.34332 16.3114 6.71236 16.3852C7.0814 16.4508 7.45044 16.4918 7.82769 16.5C7.88509 16.5 7.9507 16.5 8.00811 16.5C9.02502 16.5 10.0419 16.2786 10.9604 15.8439C11.6493 15.5241 12.2808 15.0976 12.8302 14.5728C13.6175 13.8265 14.2244 12.8998 14.5934 11.8829C14.7247 11.5302 14.8231 11.153 14.8887 10.784C14.9625 10.4067 15.0035 10.0213 15.0117 9.64403C15.0445 8.56971 14.8149 7.48719 14.3556 6.51948ZM14.1014 10.6281C14.0358 10.9644 13.9538 11.2842 13.839 11.604C13.5109 12.4979 12.9779 13.3262 12.2808 13.9823C11.7969 14.4416 11.2393 14.827 10.6242 15.1058C9.7631 15.5077 8.79539 15.7127 7.86049 15.6799C7.53245 15.6717 7.20442 15.6389 6.87638 15.5733C6.54834 15.5159 6.22851 15.4257 5.91687 15.3191C5.02297 14.9992 4.20288 14.4662 3.5468 13.7773C3.07935 13.2934 2.69391 12.7358 2.40688 12.1289C1.99683 11.2678 1.79181 10.3001 1.81641 9.34879C1.82461 9.01256 1.85741 8.67632 1.92302 8.34828C1.98863 8.01204 2.07884 7.68401 2.18545 7.37237C2.50529 6.47847 3.03835 5.66658 3.72722 5.01051C4.21928 4.54306 4.77694 4.15761 5.40021 3.87058C6.2121 3.49334 7.11421 3.29651 8.00811 3.29651C8.05731 3.29651 8.11472 3.29651 8.16392 3.29651C8.49196 3.30472 8.82 3.33752 9.14803 3.40313C9.47607 3.46053 9.79591 3.55074 10.1075 3.66556C11.0014 3.98539 11.8215 4.51025 12.4776 5.19913C12.9451 5.69118 13.3305 6.24885 13.6257 6.86392C14.0276 7.72501 14.2326 8.67632 14.208 9.62763C14.1998 9.95566 14.167 10.3001 14.1014 10.6281Z" fill="#73AEAC"/>
<path d="M10.5166 6.68306L8.78622 8.24944C8.69601 8.19203 8.6058 8.15103 8.50739 8.11002C8.43358 8.08542 8.35977 8.06081 8.28596 8.05261C8.20395 8.03621 8.13015 8.02801 8.05634 8.02801C7.83491 8.01981 7.60529 8.06902 7.40026 8.16743C7.25265 8.23303 7.12143 8.32324 7.00662 8.43806C6.8426 8.59388 6.71959 8.7825 6.64578 8.99572C6.62118 9.06953 6.59657 9.14334 6.58017 9.22535C6.56377 9.30735 6.55557 9.38116 6.55557 9.46317C6.54737 9.6928 6.59657 9.91422 6.69498 10.1192C6.76059 10.2669 6.8508 10.3899 6.96562 10.5047C7.12143 10.6687 7.31826 10.7917 7.52328 10.8655C7.59709 10.8901 7.67089 10.9147 7.7447 10.9229C7.81851 10.9393 7.90052 10.9475 7.97433 10.9475C7.99073 10.9475 7.99893 10.9475 8.01533 10.9475C8.22856 10.9475 8.44178 10.8983 8.6304 10.8081C8.76982 10.7425 8.90923 10.6523 9.02405 10.5457C9.18806 10.3899 9.31108 10.1931 9.39309 9.98803C9.41769 9.91422 9.44229 9.84041 9.4587 9.75841C9.4751 9.6764 9.4833 9.60259 9.4833 9.52058C9.4915 9.29915 9.44229 9.06953 9.34388 8.86451C9.34388 8.8563 9.33568 8.8563 9.33568 8.8481L11.0743 7.28173C11.2383 7.13411 11.2547 6.87168 11.1071 6.70766C10.9431 6.55184 10.6888 6.53544 10.5166 6.68306ZM8.655 9.61079C8.6468 9.64359 8.6386 9.6846 8.6304 9.7174C8.5976 9.80761 8.54019 9.89782 8.46638 9.96343C8.41718 10.0126 8.35977 10.0536 8.29416 10.0782C8.20395 10.1192 8.10554 10.1356 8.00713 10.1356C7.97433 10.1356 7.93332 10.1274 7.90052 10.1274C7.86772 10.1192 7.83491 10.111 7.80211 10.1028C7.7119 10.07 7.62169 10.0126 7.55608 9.93883C7.50688 9.88962 7.46587 9.83221 7.43307 9.76661C7.39206 9.6764 7.36746 9.57799 7.36746 9.47957C7.36746 9.44677 7.37566 9.40577 7.37566 9.37296C7.38386 9.34016 7.39206 9.29915 7.40026 9.26635C7.43307 9.17614 7.49047 9.08593 7.56428 9.02032C7.61349 8.97112 7.67089 8.93011 7.7365 8.89731C7.82671 8.8563 7.91692 8.8399 8.00713 8.8399C8.01533 8.8399 8.01533 8.8399 8.02353 8.8399C8.05634 8.8399 8.08914 8.8481 8.13015 8.8481C8.16295 8.8563 8.19575 8.86451 8.22856 8.87271C8.32697 8.90551 8.40898 8.96292 8.47458 9.03673C8.52379 9.08593 8.5648 9.15154 8.5976 9.20894C8.6386 9.29915 8.66321 9.39756 8.655 9.49598C8.66321 9.53698 8.655 9.57799 8.655 9.61079Z" fill="#73AEAC"/>
</svg>
