<svg width="24" height="24" viewBox="0 0 24 24" fill="none" xmlns="http://www.w3.org/2000/svg">
<g id="24 / Refresh">
<path id="Vector" d="M21.168 8C20.3892 6.21646 19.107 4.69884 17.4786 3.63311C15.8502 2.56738 13.9462 1.99983 12 2C6.81505 2 2.55005 5.947 2.05005 11" stroke="#0F294D" stroke-width="1.5" stroke-linecap="round" stroke-linejoin="round"/>
<path id="Vector_2" d="M17.0001 8H21.4001C21.4789 8 21.5569 7.98448 21.6297 7.95433C21.7025 7.92417 21.7687 7.87998 21.8244 7.82426C21.8801 7.76855 21.9243 7.70241 21.9544 7.62961C21.9846 7.55681 22.0001 7.47879 22.0001 7.4V3M2.8811 16C4.4251 19.532 7.9491 22 12.0491 22C17.2351 22 21.4991 18.053 22.0001 13" stroke="#0F294D" stroke-width="1.5" stroke-linecap="round" stroke-linejoin="round"/>
<path id="Vector_3" d="M7.05005 16H2.65005C2.49092 16 2.33831 16.0632 2.22578 16.1757C2.11326 16.2883 2.05005 16.4409 2.05005 16.6V21" stroke="#0F294D" stroke-width="1.5" stroke-linecap="round" stroke-linejoin="round"/>
</g>
</svg>
