<svg width="49" height="48" viewBox="0 0 49 48" fill="none" xmlns="http://www.w3.org/2000/svg">
<path d="M36.9444 40H12.0556C11.1126 40 10.2082 39.6254 9.5414 38.9586C8.8746 38.2918 8.5 37.3874 8.5 36.4444V11.5556C8.5 10.6126 8.8746 9.70819 9.5414 9.0414C10.2082 8.3746 11.1126 8 12.0556 8H36.9444C37.8874 8 38.7918 8.3746 39.4586 9.0414C40.1254 9.70819 40.5 10.6126 40.5 11.5556V36.4444C40.5 37.3874 40.1254 38.2918 39.4586 38.9586C38.7918 39.6254 37.8874 40 36.9444 40Z" stroke="#C3CCD9" stroke-width="2.25"/>
<path d="M8.5 29.3158H19.8778C20.4662 29.3158 20.9533 29.8133 21.2111 30.3465C21.5773 31.1035 22.4449 32 24.5 32C26.5551 32 27.4227 31.1053 27.7889 30.3465C28.0467 29.8133 28.5338 29.3158 29.1222 29.3158H40.5M8.5 15H40.5M8.5 22.1579H40.5" stroke="#C3CCD9" stroke-width="2.25"/>
</svg>
