<svg width="48" height="48" viewBox="0 0 48 48" fill="none" xmlns="http://www.w3.org/2000/svg">
<path d="M15.1111 15.1111H32.8889M15.1111 24H32.8889M15.1111 32.8889H25.7778M36.4444 8H11.5556C10.6126 8 9.70819 8.3746 9.0414 9.0414C8.3746 9.70819 8 10.6126 8 11.5556V36.4444C8 37.3874 8.3746 38.2918 9.0414 38.9586C9.70819 39.6254 10.6126 40 11.5556 40H36.4444C37.3874 40 38.2918 39.6254 38.9586 38.9586C39.6254 38.2918 40 37.3874 40 36.4444V11.5556C40 10.6126 39.6254 9.70819 38.9586 9.0414C38.2918 8.3746 37.3874 8 36.4444 8Z" stroke="#C3CCD9" stroke-width="2.5" stroke-linecap="round" stroke-linejoin="round"/>
</svg>
