<svg width="34" height="34" viewBox="0 0 34 34" fill="none" xmlns="http://www.w3.org/2000/svg">
<path d="M17 24.2008C17 28.6191 20.5817 32.2008 25 32.2008C29.4183 32.2008 33 28.6191 33 24.2008C33 19.7825 29.4183 16.2008 25 16.2008C20.5817 16.2008 17 19.7825 17 24.2008ZM17 24.2008C17 22.3995 17.5953 20.7372 18.6 19.4V5.00078M17 24.2008C17 25.5213 17.32 26.7672 17.8866 27.865C16.5387 29.0036 13.4254 29.8008 9.8 29.8008C4.93989 29.8008 1 28.3681 1 26.6008V5.00078M18.6 5.00078C18.6 6.76809 14.6601 8.20078 9.8 8.20078C4.93989 8.20078 1 6.76809 1 5.00078M18.6 5.00078C18.6 3.23347 14.6601 1.80078 9.8 1.80078C4.93989 1.80078 1 3.23347 1 5.00078M1 19.4008C1 21.1681 4.93989 22.6008 9.8 22.6008C13.3024 22.6008 16.3269 21.8567 17.7434 20.7796M18.6 12.2008C18.6 13.9681 14.6601 15.4008 9.8 15.4008C4.93989 15.4008 1 13.9681 1 12.2008" stroke="#73AEAC" stroke-width="2" stroke-linecap="round" stroke-linejoin="round"/>
</svg>
