<svg width="24" height="25" viewBox="0 0 24 25" fill="none" xmlns="http://www.w3.org/2000/svg">
<g clip-path="url(#clip0_491_31624)">
<path fill-rule="evenodd" clip-rule="evenodd" d="M3.14717 3.64717C5.16226 1.63207 7.89532 0.5 10.7451 0.5C13.5949 0.5 16.3279 1.63207 18.343 3.64717C20.3581 5.66226 21.4902 8.39532 21.4902 11.2451C21.4902 13.8587 20.538 16.3741 18.8258 18.3275L23.7933 23.295C24.0689 23.5706 24.0689 24.0176 23.7933 24.2933C23.5176 24.5689 23.0706 24.5689 22.795 24.2933L17.8275 19.3258C15.8741 21.038 13.3587 21.9902 10.7451 21.9902C7.89532 21.9902 5.16226 20.8581 3.14717 18.843C1.13207 16.8279 0 14.0949 0 11.2451C0 8.39532 1.13207 5.66226 3.14717 3.64717ZM10.7451 1.91176C8.26974 1.91176 5.89577 2.8951 4.14543 4.64543C2.3951 6.39577 1.41176 8.76974 1.41176 11.2451C1.41176 13.7205 2.3951 16.0944 4.14543 17.8448C5.89577 19.5951 8.26974 20.5784 10.7451 20.5784C13.2205 20.5784 15.5944 19.5951 17.3448 17.8448C19.0951 16.0944 20.0784 13.7205 20.0784 11.2451C20.0784 8.76974 19.0951 6.39577 17.3448 4.64543C15.5944 2.8951 13.2205 1.91176 10.7451 1.91176Z" fill="#C3CCD9"/>
</g>
<defs>
<clipPath id="clip0_491_31624">
<rect width="24" height="24" fill="white" transform="translate(0 0.5)"/>
</clipPath>
</defs>
</svg>
