<svg width="25" height="24" viewBox="0 0 25 24" fill="none" xmlns="http://www.w3.org/2000/svg">
<path d="M12.5 21C17.4706 21 21.5 16.9706 21.5 12C21.5 7.02944 17.4706 3 12.5 3C7.52944 3 3.5 7.02944 3.5 12C3.5 16.9706 7.52944 21 12.5 21Z" stroke="#082928" stroke-width="1.25" stroke-miterlimit="10"/>
<path d="M4.01562 8.99976H20.9844" stroke="#082928" stroke-width="1.25" stroke-linecap="round" stroke-linejoin="round"/>
<path d="M4.01562 15.0002H20.9844" stroke="#082928" stroke-width="1.25" stroke-linecap="round" stroke-linejoin="round"/>
<path d="M12.5 20.7562C14.5711 20.7562 16.25 16.8358 16.25 11.9999C16.25 7.16396 14.5711 3.24365 12.5 3.24365C10.4289 3.24365 8.75 7.16396 8.75 11.9999C8.75 16.8358 10.4289 20.7562 12.5 20.7562Z" stroke="#082928" stroke-width="1.25" stroke-miterlimit="10"/>
</svg>
