<svg width="16" height="16" viewBox="0 0 16 16" fill="none" xmlns="http://www.w3.org/2000/svg">
<path d="M8.45311 1.29509L10.2246 5.0557C10.2984 5.21185 10.4406 5.32008 10.6053 5.34539L14.5668 5.94846C14.9814 6.01146 15.1467 6.54508 14.8468 6.85146L11.98 9.77853C11.861 9.90023 11.8066 10.0752 11.8346 10.247L12.5115 14.3802C12.582 14.8126 12.1491 15.1427 11.7781 14.9381L8.23504 12.9867C8.08804 12.9054 7.91196 12.9054 7.76496 12.9867L4.22189 14.9381C3.85143 15.1421 3.41797 14.8126 3.48851 14.3802L4.16535 10.247C4.19335 10.0752 4.13897 9.90023 4.01997 9.77853L1.15321 6.85146C0.853283 6.54508 1.01859 6.01146 1.4332 5.94846L5.39466 5.34539C5.55943 5.32008 5.70158 5.21185 5.77535 5.0557L7.54689 1.29509C7.73212 0.901474 8.26734 0.901474 8.45311 1.29509Z" fill="#73AEAC"/>
</svg>
