<svg width="36" height="36" viewBox="0 0 36 36" fill="none" xmlns="http://www.w3.org/2000/svg">
<path fill-rule="evenodd" clip-rule="evenodd" d="M14.9362 2.29787C7.95622 2.29787 2.29787 7.95622 2.29787 14.9362C2.29787 21.9161 7.95622 27.5744 14.9362 27.5744C21.9161 27.5744 27.5744 21.9161 27.5744 14.9362C27.5744 7.95622 21.9161 2.29787 14.9362 2.29787ZM0 14.9362C0 6.68714 6.68715 0 14.9362 0C23.1852 0 29.8723 6.68714 29.8723 14.9362C29.8723 18.6471 28.519 22.042 26.2789 24.6541L35.6634 34.0386C36.1121 34.4873 36.1121 35.2148 35.6634 35.6635C35.2147 36.1122 34.4873 36.1122 34.0386 35.6635L24.654 26.279C22.0419 28.519 18.6471 29.8723 14.9362 29.8723C6.68715 29.8723 0 23.1852 0 14.9362Z" fill="white"/>
</svg>
