<svg width="34" height="34" viewBox="0 0 34 34" fill="none" xmlns="http://www.w3.org/2000/svg">
<path d="M16.9931 32.994V20.1995M16.9931 20.1995V13.8023M16.9931 20.1995L23.3903 17.0009M24.9896 9.00436C24.9896 6.88354 24.1471 4.84959 22.6475 3.34995C21.1479 1.8503 19.1139 1.00781 16.9931 1.00781C14.8723 1.00781 12.8383 1.8503 11.3387 3.34995C9.83904 4.84959 8.99655 6.88354 8.99655 9.00436M12.1952 9.00436H9.7962C7.4633 9.00436 5.22596 9.9311 3.57635 11.5807C1.92674 13.2303 1 15.4677 1 17.8006C1 20.1335 1.92674 22.3708 3.57635 24.0204C5.22596 25.67 7.4633 26.5968 9.7962 26.5968H16.9931H24.19C26.456 26.6003 28.6359 25.7293 30.2755 24.1651C31.9151 22.601 32.8878 20.4644 32.9909 18.2008C33.094 15.9371 32.3195 13.721 30.8289 12.0143C29.3383 10.3076 27.2466 9.24199 24.9896 9.03954" stroke="#73AEAC" stroke-width="2" stroke-linecap="round" stroke-linejoin="round"/>
</svg>
