<svg width="14" height="14" viewBox="0 0 14 14" fill="none" xmlns="http://www.w3.org/2000/svg">
<path fill-rule="evenodd" clip-rule="evenodd" d="M6.98369 2.42549e-08C8.34597 -0.00011334 9.67871 0.397165 10.8186 1.14316C11.9585 1.88915 12.856 2.95147 13.4011 4.19993C13.4921 4.40833 13.397 4.65106 13.1886 4.74206C12.9802 4.83307 12.7374 4.73789 12.6464 4.52949C12.1654 3.42786 11.3734 2.49049 10.3676 1.83223C9.36179 1.17398 8.1858 0.823423 6.98373 0.823529H6.98369C3.78137 0.823529 1.14692 3.2614 0.83816 6.38172C0.815767 6.60803 0.614156 6.77333 0.38785 6.75094C0.161544 6.72855 -0.00376021 6.52694 0.018633 6.30063C0.368696 2.7629 3.35399 1.84561e-05 6.98365 2.42549e-08" fill="#73AEAC"/>
<path fill-rule="evenodd" clip-rule="evenodd" d="M13.5724 0.658813C13.7998 0.658813 13.9841 0.843167 13.9841 1.07058V3.9694C13.9841 4.07538 13.9633 4.18033 13.9227 4.27825C13.8821 4.37617 13.8227 4.46514 13.7478 4.54008C13.6728 4.61502 13.5838 4.67447 13.4859 4.71503C13.388 4.75559 13.2831 4.77646 13.1771 4.77646H10.2783C10.0508 4.77646 9.86649 4.59211 9.86649 4.3647C9.86649 4.13728 10.0508 3.95293 10.2783 3.95293H13.1606V1.07058C13.1606 0.843167 13.345 0.658813 13.5724 0.658813ZM13.613 7.24906C13.8393 7.2715 14.0046 7.47314 13.9821 7.69944C13.6314 11.2371 10.6468 14 7.01642 14C4.14572 14 1.67941 12.2717 0.599032 9.80022C0.507943 9.59184 0.603019 9.34908 0.811391 9.25799C1.01976 9.16691 1.26252 9.26198 1.35361 9.47035C2.30768 11.6528 4.48476 13.1765 7.01642 13.1765C10.2194 13.1765 12.8532 10.7386 13.1626 7.61819C13.1851 7.39189 13.3867 7.22662 13.613 7.24906Z" fill="#73AEAC"/>
<path fill-rule="evenodd" clip-rule="evenodd" d="M0.252984 9.45989C0.404337 9.30854 0.609616 9.22351 0.82366 9.22351H3.72248C3.9499 9.22351 4.13425 9.40786 4.13425 9.63528C4.13425 9.86269 3.9499 10.047 3.72248 10.047H0.840131V12.9294C0.840131 13.1568 0.655778 13.3412 0.428366 13.3412C0.200955 13.3412 0.0166016 13.1568 0.0166016 12.9294V10.0306C0.0166016 9.81653 0.10163 9.61125 0.252984 9.45989Z" fill="#73AEAC"/>
</svg>
